<?xml version="1.0" encoding="UTF-8"?>
<svg width="166px" height="166px" viewBox="0 0 166 166" version="1.1" xmlns="http://www.w3.org/2000/svg" xmlns:xlink="http://www.w3.org/1999/xlink">
    <title>Pardot Email Template</title>
    <g id="Page-1" stroke="none" stroke-width="1" fill="none" fill-rule="evenodd">
        <g id="Pardot-Email-Template">
            <path d="M14,0 L152,0 C159.731986,0 166,6.2680135 166,14 L166,152 C166,159.731986 159.731986,166 152,166 L14,166 C6.2680135,166 0,159.731986 0,152 L0,14 C0,6.2680135 6.2680135,0 14,0 Z" id="Rectangle" fill="#BA5511"></path>
            <g id="Group-2" transform="translate(17.000000, 14.000000)">
                <path d="M9.81693364,0 L73.0816171,0 C78.5033598,0 82.8985507,4.41117341 82.8985507,9.85263158 L82.8985507,94.1473684 C82.8985507,99.5888266 78.5033598,104 73.0816171,104 L9.81693364,104 C4.3951909,104 0,99.5888266 0,94.1473684 L0,9.85263158 C0,4.41117341 4.3951909,0 9.81693364,0 Z" id="Rectangle" fill="#F8E8BA"></path>
                <path d="M61.8169336,32 L125.081617,32 C130.50336,32 134.898551,36.4111734 134.898551,41.8526316 L134.898551,126.147368 C134.898551,131.588827 130.50336,136 125.081617,136 L61.8169336,136 C56.3951909,136 52,131.588827 52,126.147368 L52,41.8526316 C52,36.4111734 56.3951909,32 61.8169336,32 Z" id="Rectangle" fill="#F6BD23"></path>
            </g>
        </g>
    </g>
</svg>